<mxfile host="app.diagrams.net" modified="2022-08-06T12:39:56.515Z" agent="5.0 (Windows NT 10.0; Win64; x64) AppleWebKit/537.36 (KHTML, like Gecko) Chrome/92.0.4515.159 Safari/537.36" etag="ZhuGsF2F6lGEeGLCMHTh" version="20.2.3" type="github">
  <diagram id="dMMoqp29PZXJmW7wQ7x7" name="第 1 页">
    <mxGraphModel dx="1038" dy="579" grid="1" gridSize="10" guides="1" tooltips="1" connect="1" arrows="1" fold="1" page="1" pageScale="1" pageWidth="827" pageHeight="1169" math="0" shadow="0">
      <root>
        <mxCell id="0" />
        <mxCell id="1" parent="0" />
        <mxCell id="fxj41NMDC9bXyIDjLuFJ-2" value="key_size" style="rounded=1;whiteSpace=wrap;html=1;fillColor=#d5e8d4;strokeColor=#82b366;" parent="1" vertex="1">
          <mxGeometry x="90" y="330" width="60" height="30" as="geometry" />
        </mxCell>
        <mxCell id="fxj41NMDC9bXyIDjLuFJ-3" value="table_name" style="rounded=1;whiteSpace=wrap;html=1;fillColor=#ffff88;strokeColor=#36393d;" parent="1" vertex="1">
          <mxGeometry x="150" y="330" width="90" height="30" as="geometry" />
        </mxCell>
        <mxCell id="fxj41NMDC9bXyIDjLuFJ-5" value="member" style="rounded=1;whiteSpace=wrap;html=1;fillColor=#dae8fc;gradientColor=#7ea6e0;strokeColor=#6c8ebf;" parent="1" vertex="1">
          <mxGeometry x="300" y="330" width="90" height="30" as="geometry" />
        </mxCell>
        <mxCell id="fxj41NMDC9bXyIDjLuFJ-7" value="version" style="rounded=1;whiteSpace=wrap;html=1;fillColor=#e6d0de;gradientColor=#d5739d;strokeColor=#996185;" parent="1" vertex="1">
          <mxGeometry x="240" y="330" width="60" height="30" as="geometry" />
        </mxCell>
        <mxCell id="fxj41NMDC9bXyIDjLuFJ-8" value="null" style="rounded=1;whiteSpace=wrap;html=1;" parent="1" vertex="1">
          <mxGeometry x="440" y="330" width="90" height="30" as="geometry" />
        </mxCell>
        <mxCell id="fxj41NMDC9bXyIDjLuFJ-10" value="table_name" style="rounded=1;whiteSpace=wrap;html=1;fillColor=#ffff88;strokeColor=#36393d;" parent="1" vertex="1">
          <mxGeometry x="120" y="110" width="90" height="30" as="geometry" />
        </mxCell>
        <mxCell id="fxj41NMDC9bXyIDjLuFJ-11" value="table_size" style="rounded=1;whiteSpace=wrap;html=1;fillColor=#b0e3e6;strokeColor=#0e8088;" parent="1" vertex="1">
          <mxGeometry x="240" y="110" width="60" height="30" as="geometry" />
        </mxCell>
        <mxCell id="fxj41NMDC9bXyIDjLuFJ-12" value="version" style="rounded=1;whiteSpace=wrap;html=1;fillColor=#e6d0de;gradientColor=#d5739d;strokeColor=#996185;" parent="1" vertex="1">
          <mxGeometry x="300" y="110" width="60" height="30" as="geometry" />
        </mxCell>
        <mxCell id="fxj41NMDC9bXyIDjLuFJ-13" value="timestamp" style="rounded=1;whiteSpace=wrap;html=1;fillColor=#d5e8d4;strokeColor=#82b366;gradientColor=#97d077;" parent="1" vertex="1">
          <mxGeometry x="360" y="110" width="120" height="30" as="geometry" />
        </mxCell>
        <mxCell id="a17ZHB6fAJJrFwJBUc9u-2" value="" style="shape=curlyBracket;whiteSpace=wrap;html=1;rounded=1;rotation=-90;" vertex="1" parent="1">
          <mxGeometry x="260" y="125" width="20" height="60" as="geometry" />
        </mxCell>
        <mxCell id="a17ZHB6fAJJrFwJBUc9u-3" value="" style="shape=curlyBracket;whiteSpace=wrap;html=1;rounded=1;rotation=-90;" vertex="1" parent="1">
          <mxGeometry x="320" y="125" width="20" height="60" as="geometry" />
        </mxCell>
        <mxCell id="a17ZHB6fAJJrFwJBUc9u-4" value="" style="shape=curlyBracket;whiteSpace=wrap;html=1;rounded=1;rotation=-90;" vertex="1" parent="1">
          <mxGeometry x="409.5" y="97.5" width="20" height="115" as="geometry" />
        </mxCell>
        <mxCell id="a17ZHB6fAJJrFwJBUc9u-5" value="4字节" style="text;html=1;align=center;verticalAlign=middle;resizable=0;points=[];autosize=1;strokeColor=none;fillColor=none;" vertex="1" parent="1">
          <mxGeometry x="245" y="155" width="50" height="30" as="geometry" />
        </mxCell>
        <mxCell id="a17ZHB6fAJJrFwJBUc9u-6" value="4字节" style="text;html=1;align=center;verticalAlign=middle;resizable=0;points=[];autosize=1;strokeColor=none;fillColor=none;" vertex="1" parent="1">
          <mxGeometry x="306" y="156" width="50" height="30" as="geometry" />
        </mxCell>
        <mxCell id="a17ZHB6fAJJrFwJBUc9u-7" value="8字节" style="text;html=1;align=center;verticalAlign=middle;resizable=0;points=[];autosize=1;strokeColor=none;fillColor=none;" vertex="1" parent="1">
          <mxGeometry x="394.5" y="156" width="50" height="30" as="geometry" />
        </mxCell>
        <mxCell id="a17ZHB6fAJJrFwJBUc9u-8" value="" style="shape=curlyBracket;whiteSpace=wrap;html=1;rounded=1;rotation=-90;" vertex="1" parent="1">
          <mxGeometry x="110" y="340" width="20" height="60" as="geometry" />
        </mxCell>
        <mxCell id="a17ZHB6fAJJrFwJBUc9u-9" value="4字节" style="text;html=1;align=center;verticalAlign=middle;resizable=0;points=[];autosize=1;strokeColor=none;fillColor=none;" vertex="1" parent="1">
          <mxGeometry x="95" y="370" width="50" height="30" as="geometry" />
        </mxCell>
        <mxCell id="a17ZHB6fAJJrFwJBUc9u-10" value="4字节" style="text;html=1;align=center;verticalAlign=middle;resizable=0;points=[];autosize=1;strokeColor=none;fillColor=none;" vertex="1" parent="1">
          <mxGeometry x="245" y="370" width="50" height="30" as="geometry" />
        </mxCell>
        <mxCell id="a17ZHB6fAJJrFwJBUc9u-12" value="" style="shape=curlyBracket;whiteSpace=wrap;html=1;rounded=1;rotation=-90;" vertex="1" parent="1">
          <mxGeometry x="260" y="340" width="20" height="60" as="geometry" />
        </mxCell>
      </root>
    </mxGraphModel>
  </diagram>
</mxfile>
